<svg xmlns="http://www.w3.org/2000/svg" viewBox="0 0 31.99 32.03"><title>Eszköz 1</title><g id="Réteg_2" data-name="Réteg 2"><g id="Layer_1" data-name="Layer 1"><path d="M12.35.46C21.19-1.87,30.93,4.88,31.82,14c1.33,8.42-5.26,17-13.73,17.87C9.63,33.22,1,26.54.16,18.05A16.06,16.06,0,0,1,12.35.46Zm.9,3.91A12.06,12.06,0,0,0,5,11.22c-3.11,6.53,1.18,15,8.26,16.46C20.46,29.62,28.21,23.42,28,16,28.21,8.6,20.44,2.39,13.25,4.37Z"/><path d="M11.33,7a15.06,15.06,0,0,1,9.34,0c-.93,1.36-1.89,2.7-2.86,4l-3.55.13C13.27,9.73,12.3,8.35,11.33,7Z"/><path d="M5.8,17.73a15.64,15.64,0,0,1,3-9C9.9,10.18,11,11.63,12,13.09,11.49,16.25,8.53,17.12,5.8,17.73Z"/><path d="M23.19,8.75a16.07,16.07,0,0,1,3,9c-2.77-.59-5.72-1.5-6.26-4.69C21,11.6,22.1,10.17,23.19,8.75Z"/><path d="M15.26,14.14c3.34-.78,3.1,3.39.75,4.54C14.62,17.39,12.8,15.44,15.26,14.14Z"/><path d="M6.87,20.71c1.66-.62,3.34-1.21,5-1.78l2.61,2c0,1.7,0,3.41-.06,5.12A15.73,15.73,0,0,1,6.87,20.71Z"/><path d="M17.5,21l2.59-2c1.68.57,3.37,1.15,5,1.77a16,16,0,0,1-7.55,5.38C17.53,24.37,17.51,22.67,17.5,21Z"/></g></g></svg>